<mxfile host="app.diagrams.net" modified="2021-12-14T21:55:58.789Z" agent="5.0 (X11)" etag="X49sn-xZoyES_qd68IMJ" version="15.9.6" type="github">
  <diagram id="sgUMgZ0se9-g9XeuNUKD" name="Page-1">
    <mxGraphModel dx="1354" dy="793" grid="1" gridSize="10" guides="1" tooltips="1" connect="1" arrows="1" fold="1" page="1" pageScale="1" pageWidth="827" pageHeight="1169" math="0" shadow="0">
      <root>
        <mxCell id="0" />
        <mxCell id="1" parent="0" />
        <mxCell id="u-bDskKXKWjpwmTJ1djJ-1" value="&lt;font style=&quot;font-size: 10px&quot;&gt;time_create&lt;/font&gt;" style="rounded=0;whiteSpace=wrap;html=1;" parent="1" vertex="1">
          <mxGeometry x="510" y="240" width="100" height="20" as="geometry" />
        </mxCell>
        <mxCell id="u-bDskKXKWjpwmTJ1djJ-2" value="" style="endArrow=classic;html=1;rounded=0;entryX=1;entryY=1;entryDx=0;entryDy=0;" parent="1" target="u-bDskKXKWjpwmTJ1djJ-3" edge="1">
          <mxGeometry width="50" height="50" relative="1" as="geometry">
            <mxPoint x="120" y="170" as="sourcePoint" />
            <mxPoint x="120" y="610" as="targetPoint" />
          </mxGeometry>
        </mxCell>
        <mxCell id="u-bDskKXKWjpwmTJ1djJ-3" value="t" style="text;html=1;strokeColor=none;fillColor=none;align=center;verticalAlign=middle;whiteSpace=wrap;rounded=0;" parent="1" vertex="1">
          <mxGeometry x="60" y="680" width="60" height="80" as="geometry" />
        </mxCell>
        <mxCell id="u-bDskKXKWjpwmTJ1djJ-4" style="edgeStyle=orthogonalEdgeStyle;rounded=0;orthogonalLoop=1;jettySize=auto;html=1;entryX=0.5;entryY=0;entryDx=0;entryDy=0;" parent="1" source="u-bDskKXKWjpwmTJ1djJ-5" target="u-bDskKXKWjpwmTJ1djJ-1" edge="1">
          <mxGeometry relative="1" as="geometry" />
        </mxCell>
        <mxCell id="u-bDskKXKWjpwmTJ1djJ-5" value="&lt;div style=&quot;font-size: 12px&quot;&gt;&lt;font style=&quot;font-size: 12px&quot;&gt;program&lt;/font&gt;&lt;/div&gt;" style="rounded=0;whiteSpace=wrap;html=1;fontSize=10;" parent="1" vertex="1">
          <mxGeometry x="510" y="160" width="100" height="50" as="geometry" />
        </mxCell>
        <mxCell id="u-bDskKXKWjpwmTJ1djJ-6" value="&lt;font style=&quot;font-size: 10px&quot;&gt;timer_settime&lt;/font&gt;" style="rounded=0;whiteSpace=wrap;html=1;fontSize=12;" parent="1" vertex="1">
          <mxGeometry x="350" y="340" width="100" height="20" as="geometry" />
        </mxCell>
        <mxCell id="u-bDskKXKWjpwmTJ1djJ-7" value="" style="endArrow=classic;html=1;rounded=0;fontSize=10;exitX=0.5;exitY=1;exitDx=0;exitDy=0;" parent="1" source="u-bDskKXKWjpwmTJ1djJ-1" target="u-bDskKXKWjpwmTJ1djJ-6" edge="1">
          <mxGeometry width="50" height="50" relative="1" as="geometry">
            <mxPoint x="520" y="420" as="sourcePoint" />
            <mxPoint x="570" y="370" as="targetPoint" />
            <Array as="points">
              <mxPoint x="560" y="320" />
              <mxPoint x="400" y="320" />
            </Array>
          </mxGeometry>
        </mxCell>
        <mxCell id="u-bDskKXKWjpwmTJ1djJ-9" value="" style="endArrow=classic;html=1;rounded=0;fontSize=10;exitX=0.5;exitY=1;exitDx=0;exitDy=0;" parent="1" source="u-bDskKXKWjpwmTJ1djJ-6" edge="1">
          <mxGeometry width="50" height="50" relative="1" as="geometry">
            <mxPoint x="250" y="450" as="sourcePoint" />
            <mxPoint x="400" y="420" as="targetPoint" />
          </mxGeometry>
        </mxCell>
        <mxCell id="u-bDskKXKWjpwmTJ1djJ-11" value="bash shell" style="rounded=0;whiteSpace=wrap;html=1;" parent="1" vertex="1">
          <mxGeometry x="181" y="290" width="99" height="50" as="geometry" />
        </mxCell>
        <mxCell id="u-bDskKXKWjpwmTJ1djJ-12" value="" style="endArrow=none;dashed=1;html=1;dashPattern=1 3;strokeWidth=2;rounded=0;fontSize=12;entryX=0.5;entryY=1;entryDx=0;entryDy=0;startArrow=none;" parent="1" target="u-bDskKXKWjpwmTJ1djJ-11" edge="1">
          <mxGeometry width="50" height="50" relative="1" as="geometry">
            <mxPoint x="230" y="680" as="sourcePoint" />
            <mxPoint x="390" y="210" as="targetPoint" />
            <Array as="points" />
          </mxGeometry>
        </mxCell>
        <mxCell id="u-bDskKXKWjpwmTJ1djJ-16" value="t0" style="text;html=1;strokeColor=none;fillColor=none;align=center;verticalAlign=middle;whiteSpace=wrap;rounded=0;" parent="1" vertex="1">
          <mxGeometry x="80" y="160" width="60" height="30" as="geometry" />
        </mxCell>
        <mxCell id="u-bDskKXKWjpwmTJ1djJ-37" style="edgeStyle=orthogonalEdgeStyle;rounded=0;orthogonalLoop=1;jettySize=auto;html=1;exitX=0.5;exitY=1;exitDx=0;exitDy=0;entryX=0.5;entryY=0;entryDx=0;entryDy=0;" parent="1" source="u-bDskKXKWjpwmTJ1djJ-17" target="u-bDskKXKWjpwmTJ1djJ-18" edge="1">
          <mxGeometry relative="1" as="geometry" />
        </mxCell>
        <mxCell id="u-bDskKXKWjpwmTJ1djJ-17" value="&lt;font style=&quot;font-size: 10px&quot;&gt;timer_settime&lt;/font&gt;" style="rounded=0;whiteSpace=wrap;html=1;fontSize=12;" parent="1" vertex="1">
          <mxGeometry x="667" y="340" width="100" height="20" as="geometry" />
        </mxCell>
        <mxCell id="u-bDskKXKWjpwmTJ1djJ-18" value="&lt;div&gt;infinite loop{&lt;/div&gt;&lt;div&gt;nanosleep&lt;br&gt;&lt;/div&gt;&lt;div&gt;}&lt;br&gt;&lt;/div&gt;" style="rounded=0;whiteSpace=wrap;html=1;fontSize=10;" parent="1" vertex="1">
          <mxGeometry x="667" y="390" width="100" height="50" as="geometry" />
        </mxCell>
        <mxCell id="u-bDskKXKWjpwmTJ1djJ-20" value="" style="endArrow=classic;html=1;rounded=0;fontSize=10;exitX=0.5;exitY=1;exitDx=0;exitDy=0;" parent="1" source="u-bDskKXKWjpwmTJ1djJ-18" edge="1">
          <mxGeometry width="50" height="50" relative="1" as="geometry">
            <mxPoint x="697" y="510" as="sourcePoint" />
            <mxPoint x="717" y="370" as="targetPoint" />
            <Array as="points">
              <mxPoint x="717" y="460" />
              <mxPoint x="827" y="460" />
              <mxPoint x="827" y="370" />
            </Array>
          </mxGeometry>
        </mxCell>
        <mxCell id="u-bDskKXKWjpwmTJ1djJ-21" value="" style="endArrow=classic;html=1;rounded=0;entryX=0.5;entryY=0;entryDx=0;entryDy=0;exitX=0.5;exitY=1;exitDx=0;exitDy=0;" parent="1" source="u-bDskKXKWjpwmTJ1djJ-1" target="u-bDskKXKWjpwmTJ1djJ-17" edge="1">
          <mxGeometry width="50" height="50" relative="1" as="geometry">
            <mxPoint x="420" y="400" as="sourcePoint" />
            <mxPoint x="470" y="350" as="targetPoint" />
            <Array as="points">
              <mxPoint x="560" y="320" />
              <mxPoint x="680" y="320" />
              <mxPoint x="717" y="320" />
            </Array>
          </mxGeometry>
        </mxCell>
        <mxCell id="u-bDskKXKWjpwmTJ1djJ-22" value="SIGSTOP, SIGTSTP, SIGTTIN, SIGTTOU" style="text;html=1;strokeColor=none;fillColor=none;align=center;verticalAlign=middle;whiteSpace=wrap;rounded=0;" parent="1" vertex="1">
          <mxGeometry x="400" y="290" width="140" height="30" as="geometry" />
        </mxCell>
        <mxCell id="u-bDskKXKWjpwmTJ1djJ-24" value="other" style="text;html=1;strokeColor=none;fillColor=none;align=center;verticalAlign=middle;whiteSpace=wrap;rounded=0;" parent="1" vertex="1">
          <mxGeometry x="600" y="290" width="60" height="30" as="geometry" />
        </mxCell>
        <mxCell id="u-bDskKXKWjpwmTJ1djJ-26" value="" style="triangle;whiteSpace=wrap;html=1;rotation=-90;" parent="1" vertex="1">
          <mxGeometry x="470" y="370" width="20" height="20" as="geometry" />
        </mxCell>
        <mxCell id="u-bDskKXKWjpwmTJ1djJ-32" value="tt" style="text;html=1;strokeColor=none;fillColor=none;align=center;verticalAlign=middle;whiteSpace=wrap;rounded=0;" parent="1" vertex="1">
          <mxGeometry x="480" y="375" width="30" height="15" as="geometry" />
        </mxCell>
        <mxCell id="u-bDskKXKWjpwmTJ1djJ-34" value="" style="triangle;whiteSpace=wrap;html=1;rotation=-90;" parent="1" vertex="1">
          <mxGeometry x="777" y="340" width="20" height="20" as="geometry" />
        </mxCell>
        <mxCell id="u-bDskKXKWjpwmTJ1djJ-35" value="tt" style="text;html=1;strokeColor=none;fillColor=none;align=center;verticalAlign=middle;whiteSpace=wrap;rounded=0;" parent="1" vertex="1">
          <mxGeometry x="790" y="345" width="27" height="15" as="geometry" />
        </mxCell>
        <mxCell id="u-bDskKXKWjpwmTJ1djJ-51" value="" style="html=1;verticalLabelPosition=bottom;align=center;labelBackgroundColor=#ffffff;verticalAlign=top;strokeWidth=2;strokeColor=#0080F0;shadow=0;dashed=0;shape=mxgraph.ios7.icons.alarm_clock;" parent="1" vertex="1">
          <mxGeometry x="787" y="390" width="27" height="30" as="geometry" />
        </mxCell>
        <mxCell id="u-bDskKXKWjpwmTJ1djJ-52" value="" style="curved=1;endArrow=classic;html=1;rounded=0;" parent="1" edge="1">
          <mxGeometry width="50" height="50" relative="1" as="geometry">
            <mxPoint x="777" y="410" as="sourcePoint" />
            <mxPoint x="797" y="380" as="targetPoint" />
            <Array as="points">
              <mxPoint x="777" y="430" />
              <mxPoint x="807" y="430" />
              <mxPoint x="827" y="410" />
              <mxPoint x="817" y="380" />
            </Array>
          </mxGeometry>
        </mxCell>
        <mxCell id="u-bDskKXKWjpwmTJ1djJ-53" value="" style="endArrow=classic;dashed=1;html=1;dashPattern=1 3;strokeWidth=2;rounded=0;" parent="1" edge="1">
          <mxGeometry width="50" height="50" relative="1" as="geometry">
            <mxPoint x="230" y="449.31" as="sourcePoint" />
            <mxPoint x="370" y="449" as="targetPoint" />
            <Array as="points">
              <mxPoint x="280" y="449.65" />
            </Array>
          </mxGeometry>
        </mxCell>
        <mxCell id="u-bDskKXKWjpwmTJ1djJ-54" value="" style="html=1;verticalLabelPosition=bottom;align=center;labelBackgroundColor=#ffffff;verticalAlign=top;strokeWidth=2;strokeColor=#0080F0;shadow=0;dashed=0;shape=mxgraph.ios7.icons.alarm_clock;" parent="1" vertex="1">
          <mxGeometry x="387" y="420" width="27" height="30" as="geometry" />
        </mxCell>
        <mxCell id="u-bDskKXKWjpwmTJ1djJ-56" value="" style="strokeWidth=1;html=1;shape=mxgraph.flowchart.annotation_1;align=left;pointerEvents=1;rotation=-180;dashed=1;" parent="1" vertex="1">
          <mxGeometry x="240" y="347.5" width="50" height="87.5" as="geometry" />
        </mxCell>
        <mxCell id="u-bDskKXKWjpwmTJ1djJ-57" value="" style="triangle;whiteSpace=wrap;html=1;rotation=-90;" parent="1" vertex="1">
          <mxGeometry x="290" y="381.25" width="20" height="20" as="geometry" />
        </mxCell>
        <mxCell id="u-bDskKXKWjpwmTJ1djJ-58" value="ts" style="text;html=1;strokeColor=none;fillColor=none;align=center;verticalAlign=middle;whiteSpace=wrap;rounded=0;" parent="1" vertex="1">
          <mxGeometry x="300" y="386.25" width="30" height="15" as="geometry" />
        </mxCell>
        <mxCell id="u-bDskKXKWjpwmTJ1djJ-62" value="" style="strokeWidth=1;html=1;shape=mxgraph.flowchart.annotation_1;align=left;pointerEvents=1;rotation=-180;" parent="1" vertex="1">
          <mxGeometry x="450" y="362.5" width="17" height="50" as="geometry" />
        </mxCell>
        <mxCell id="u-bDskKXKWjpwmTJ1djJ-64" value="" style="shape=curlyBracket;whiteSpace=wrap;html=1;rounded=1;flipH=1;strokeWidth=1;" parent="1" vertex="1">
          <mxGeometry x="430" y="420" width="10" height="30" as="geometry" />
        </mxCell>
        <mxCell id="u-bDskKXKWjpwmTJ1djJ-65" value="&lt;font style=&quot;font-size: 10px&quot;&gt;stop process&lt;/font&gt;" style="text;html=1;strokeColor=none;fillColor=none;align=center;verticalAlign=middle;whiteSpace=wrap;rounded=0;" parent="1" vertex="1">
          <mxGeometry x="440" y="420" width="70" height="30" as="geometry" />
        </mxCell>
        <mxCell id="u-bDskKXKWjpwmTJ1djJ-66" value="SIGCONT" style="text;html=1;strokeColor=none;fillColor=none;align=center;verticalAlign=middle;whiteSpace=wrap;rounded=0;fontSize=10;" parent="1" vertex="1">
          <mxGeometry x="300" y="435" width="60" height="10" as="geometry" />
        </mxCell>
        <mxCell id="u-bDskKXKWjpwmTJ1djJ-68" value="" style="triangle;whiteSpace=wrap;html=1;rotation=-90;" parent="1" vertex="1">
          <mxGeometry x="360" y="485" width="20" height="20" as="geometry" />
        </mxCell>
        <mxCell id="u-bDskKXKWjpwmTJ1djJ-69" value="tt" style="text;html=1;strokeColor=none;fillColor=none;align=center;verticalAlign=middle;whiteSpace=wrap;rounded=0;" parent="1" vertex="1">
          <mxGeometry x="370" y="490" width="30" height="15" as="geometry" />
        </mxCell>
        <mxCell id="u-bDskKXKWjpwmTJ1djJ-70" value="" style="triangle;whiteSpace=wrap;html=1;rotation=-90;" parent="1" vertex="1">
          <mxGeometry x="300" y="485" width="20" height="20" as="geometry" />
        </mxCell>
        <mxCell id="u-bDskKXKWjpwmTJ1djJ-71" value="ts" style="text;html=1;strokeColor=none;fillColor=none;align=center;verticalAlign=middle;whiteSpace=wrap;rounded=0;" parent="1" vertex="1">
          <mxGeometry x="310" y="490" width="30" height="15" as="geometry" />
        </mxCell>
        <mxCell id="u-bDskKXKWjpwmTJ1djJ-72" value="" style="triangle;whiteSpace=wrap;html=1;rotation=-90;" parent="1" vertex="1">
          <mxGeometry x="485" y="485" width="20" height="20" as="geometry" />
        </mxCell>
        <mxCell id="u-bDskKXKWjpwmTJ1djJ-73" value="tt" style="text;html=1;strokeColor=none;fillColor=none;align=center;verticalAlign=middle;whiteSpace=wrap;rounded=0;" parent="1" vertex="1">
          <mxGeometry x="495" y="490" width="30" height="15" as="geometry" />
        </mxCell>
        <mxCell id="u-bDskKXKWjpwmTJ1djJ-74" value="" style="triangle;whiteSpace=wrap;html=1;rotation=-90;" parent="1" vertex="1">
          <mxGeometry x="435" y="485" width="20" height="20" as="geometry" />
        </mxCell>
        <mxCell id="u-bDskKXKWjpwmTJ1djJ-95" style="edgeStyle=orthogonalEdgeStyle;rounded=0;orthogonalLoop=1;jettySize=auto;html=1;exitX=1;exitY=1;exitDx=0;exitDy=0;fontSize=10;" parent="1" source="u-bDskKXKWjpwmTJ1djJ-75" target="u-bDskKXKWjpwmTJ1djJ-93" edge="1">
          <mxGeometry relative="1" as="geometry" />
        </mxCell>
        <mxCell id="u-bDskKXKWjpwmTJ1djJ-75" value="ts" style="text;html=1;strokeColor=none;fillColor=none;align=center;verticalAlign=middle;whiteSpace=wrap;rounded=0;" parent="1" vertex="1">
          <mxGeometry x="445" y="490" width="30" height="15" as="geometry" />
        </mxCell>
        <mxCell id="u-bDskKXKWjpwmTJ1djJ-76" value="" style="html=1;verticalLabelPosition=bottom;labelBackgroundColor=#ffffff;verticalAlign=top;shadow=0;dashed=0;strokeWidth=2;shape=mxgraph.ios7.misc.more;strokeColor=#000000;fontSize=10;" parent="1" vertex="1">
          <mxGeometry x="340" y="490" width="10" height="10" as="geometry" />
        </mxCell>
        <mxCell id="u-bDskKXKWjpwmTJ1djJ-77" value="" style="html=1;verticalLabelPosition=bottom;labelBackgroundColor=#ffffff;verticalAlign=top;shadow=0;dashed=0;strokeWidth=2;shape=mxgraph.ios7.misc.more;strokeColor=#000000;fontSize=10;rotation=-180;" parent="1" vertex="1">
          <mxGeometry x="470" y="492.5" width="10" height="10" as="geometry" />
        </mxCell>
        <mxCell id="u-bDskKXKWjpwmTJ1djJ-81" value="" style="endArrow=none;dashed=1;html=1;rounded=0;fontSize=10;entryX=0.5;entryY=0;entryDx=0;entryDy=0;entryPerimeter=0;" parent="1" source="u-bDskKXKWjpwmTJ1djJ-54" target="u-bDskKXKWjpwmTJ1djJ-76" edge="1">
          <mxGeometry width="50" height="50" relative="1" as="geometry">
            <mxPoint x="400.5" y="500" as="sourcePoint" />
            <mxPoint x="400.5" y="520.7106781186548" as="targetPoint" />
          </mxGeometry>
        </mxCell>
        <mxCell id="u-bDskKXKWjpwmTJ1djJ-83" value="" style="endArrow=none;dashed=1;html=1;rounded=0;fontSize=10;exitX=0.5;exitY=1;exitDx=0;exitDy=0;exitPerimeter=0;entryX=0.857;entryY=0.893;entryDx=0;entryDy=0;entryPerimeter=0;" parent="1" source="u-bDskKXKWjpwmTJ1djJ-77" target="u-bDskKXKWjpwmTJ1djJ-54" edge="1">
          <mxGeometry width="50" height="50" relative="1" as="geometry">
            <mxPoint x="390" y="490" as="sourcePoint" />
            <mxPoint x="440" y="440" as="targetPoint" />
          </mxGeometry>
        </mxCell>
        <mxCell id="u-bDskKXKWjpwmTJ1djJ-87" value="" style="triangle;whiteSpace=wrap;html=1;rotation=-90;" parent="1" vertex="1">
          <mxGeometry x="510" y="533.75" width="10" height="12.5" as="geometry" />
        </mxCell>
        <mxCell id="u-bDskKXKWjpwmTJ1djJ-88" value="tt" style="text;html=1;strokeColor=none;fillColor=none;align=center;verticalAlign=middle;whiteSpace=wrap;rounded=0;" parent="1" vertex="1">
          <mxGeometry x="510" y="534.38" width="30" height="15" as="geometry" />
        </mxCell>
        <mxCell id="u-bDskKXKWjpwmTJ1djJ-89" value="" style="strokeWidth=1;html=1;shape=mxgraph.flowchart.annotation_1;align=left;pointerEvents=1;rotation=-180;" parent="1" vertex="1">
          <mxGeometry x="490" y="520" width="17" height="50" as="geometry" />
        </mxCell>
        <mxCell id="u-bDskKXKWjpwmTJ1djJ-93" value="" style="html=1;verticalLabelPosition=bottom;align=center;labelBackgroundColor=#ffffff;verticalAlign=top;strokeWidth=2;strokeColor=#0080F0;shadow=0;dashed=0;shape=mxgraph.ios7.icons.alarm_clock;" parent="1" vertex="1">
          <mxGeometry x="461.5" y="585" width="27" height="30" as="geometry" />
        </mxCell>
        <mxCell id="u-bDskKXKWjpwmTJ1djJ-96" value="" style="curved=1;endArrow=classic;html=1;rounded=0;fontSize=10;exitX=0.958;exitY=0.795;exitDx=0;exitDy=0;exitPerimeter=0;" parent="1" source="u-bDskKXKWjpwmTJ1djJ-93" edge="1">
          <mxGeometry width="50" height="50" relative="1" as="geometry">
            <mxPoint x="550" y="620" as="sourcePoint" />
            <mxPoint x="475" y="520" as="targetPoint" />
            <Array as="points">
              <mxPoint x="540" y="620" />
              <mxPoint x="580" y="498" />
            </Array>
          </mxGeometry>
        </mxCell>
        <mxCell id="u-bDskKXKWjpwmTJ1djJ-97" value="" style="endArrow=classic;html=1;rounded=0;fontSize=10;exitX=0.5;exitY=1;exitDx=0;exitDy=0;exitPerimeter=0;" parent="1" source="u-bDskKXKWjpwmTJ1djJ-76" edge="1">
          <mxGeometry width="50" height="50" relative="1" as="geometry">
            <mxPoint x="360" y="590" as="sourcePoint" />
            <mxPoint x="345" y="690" as="targetPoint" />
          </mxGeometry>
        </mxCell>
        <mxCell id="u-bDskKXKWjpwmTJ1djJ-103" value="&lt;font style=&quot;font-size: 8px&quot;&gt;SIGCONT&lt;/font&gt;" style="text;html=1;strokeColor=none;fillColor=none;align=center;verticalAlign=middle;whiteSpace=wrap;rounded=0;fontSize=10;" parent="1" vertex="1">
          <mxGeometry x="428.25" y="521.88" width="32.5" height="27.5" as="geometry" />
        </mxCell>
        <mxCell id="u-bDskKXKWjpwmTJ1djJ-106" value="" style="triangle;whiteSpace=wrap;html=1;rotation=-90;" parent="1" vertex="1">
          <mxGeometry x="434.25" y="545.63" width="5" height="7.5" as="geometry" />
        </mxCell>
        <mxCell id="u-bDskKXKWjpwmTJ1djJ-107" value="ts" style="text;html=1;strokeColor=none;fillColor=none;align=center;verticalAlign=middle;whiteSpace=wrap;rounded=0;fontSize=10;" parent="1" vertex="1">
          <mxGeometry x="442" y="549.38" width="5" as="geometry" />
        </mxCell>
        <mxCell id="u-bDskKXKWjpwmTJ1djJ-108" value="" style="endArrow=none;dashed=1;html=1;dashPattern=1 3;strokeWidth=1;rounded=0;fontSize=8;startArrow=classic;startFill=1;endSize=1;startSize=2;" parent="1" edge="1">
          <mxGeometry width="50" height="50" relative="1" as="geometry">
            <mxPoint x="474" y="545.88" as="sourcePoint" />
            <mxPoint x="414" y="545.88" as="targetPoint" />
          </mxGeometry>
        </mxCell>
        <mxCell id="u-bDskKXKWjpwmTJ1djJ-109" value="" style="shape=curlyBracket;whiteSpace=wrap;html=1;rounded=1;flipH=1;strokeWidth=1;rotation=-180;" parent="1" vertex="1">
          <mxGeometry x="451.5" y="585" width="10" height="30" as="geometry" />
        </mxCell>
        <mxCell id="u-bDskKXKWjpwmTJ1djJ-110" value="&lt;font style=&quot;font-size: 8px&quot;&gt;stop process&lt;/font&gt;" style="text;html=1;strokeColor=none;fillColor=none;align=center;verticalAlign=middle;whiteSpace=wrap;rounded=0;" parent="1" vertex="1">
          <mxGeometry x="391.5" y="585" width="70" height="30" as="geometry" />
        </mxCell>
        <mxCell id="u-bDskKXKWjpwmTJ1djJ-121" value="" style="strokeWidth=1;html=1;shape=mxgraph.flowchart.annotation_1;align=left;pointerEvents=1;fontSize=8;dashed=1;" parent="1" vertex="1">
          <mxGeometry x="270" y="510" width="20" height="80" as="geometry" />
        </mxCell>
        <mxCell id="u-bDskKXKWjpwmTJ1djJ-126" value="" style="triangle;whiteSpace=wrap;html=1;rotation=-90;" parent="1" vertex="1">
          <mxGeometry x="250" y="541.57" width="10" height="12.5" as="geometry" />
        </mxCell>
        <mxCell id="u-bDskKXKWjpwmTJ1djJ-127" value="ts" style="text;html=1;strokeColor=none;fillColor=none;align=center;verticalAlign=middle;whiteSpace=wrap;rounded=0;" parent="1" vertex="1">
          <mxGeometry x="250" y="542.2" width="30" height="15" as="geometry" />
        </mxCell>
        <mxCell id="u-bDskKXKWjpwmTJ1djJ-128" value="" style="strokeWidth=1;html=1;shape=mxgraph.flowchart.annotation_1;align=left;pointerEvents=1;rotation=0;" parent="1" vertex="1">
          <mxGeometry x="323" y="510.63" width="17" height="50" as="geometry" />
        </mxCell>
        <mxCell id="u-bDskKXKWjpwmTJ1djJ-129" value="" style="triangle;whiteSpace=wrap;html=1;rotation=-90;" parent="1" vertex="1">
          <mxGeometry x="300" y="542.2" width="10" height="12.5" as="geometry" />
        </mxCell>
        <mxCell id="u-bDskKXKWjpwmTJ1djJ-130" value="tt" style="text;html=1;strokeColor=none;fillColor=none;align=center;verticalAlign=middle;whiteSpace=wrap;rounded=0;" parent="1" vertex="1">
          <mxGeometry x="300" y="542.83" width="30" height="15" as="geometry" />
        </mxCell>
        <mxCell id="u-bDskKXKWjpwmTJ1djJ-133" value="" style="strokeWidth=1;html=1;shape=mxgraph.flowchart.annotation_1;align=left;pointerEvents=1;rotation=0;" parent="1" vertex="1">
          <mxGeometry x="323" y="560.63" width="17" height="50" as="geometry" />
        </mxCell>
        <mxCell id="u-bDskKXKWjpwmTJ1djJ-134" value="" style="triangle;whiteSpace=wrap;html=1;rotation=-90;" parent="1" vertex="1">
          <mxGeometry x="300" y="592.2" width="10" height="12.5" as="geometry" />
        </mxCell>
        <mxCell id="u-bDskKXKWjpwmTJ1djJ-135" value="tt" style="text;html=1;strokeColor=none;fillColor=none;align=center;verticalAlign=middle;whiteSpace=wrap;rounded=0;" parent="1" vertex="1">
          <mxGeometry x="300" y="592.83" width="30" height="15" as="geometry" />
        </mxCell>
        <mxCell id="u-bDskKXKWjpwmTJ1djJ-136" value="" style="strokeWidth=1;html=1;shape=mxgraph.flowchart.annotation_1;align=left;pointerEvents=1;rotation=0;" parent="1" vertex="1">
          <mxGeometry x="323" y="610.63" width="17" height="50" as="geometry" />
        </mxCell>
        <mxCell id="u-bDskKXKWjpwmTJ1djJ-137" value="" style="triangle;whiteSpace=wrap;html=1;rotation=-90;" parent="1" vertex="1">
          <mxGeometry x="300" y="642.2" width="10" height="12.5" as="geometry" />
        </mxCell>
        <mxCell id="u-bDskKXKWjpwmTJ1djJ-138" value="tt" style="text;html=1;strokeColor=none;fillColor=none;align=center;verticalAlign=middle;whiteSpace=wrap;rounded=0;" parent="1" vertex="1">
          <mxGeometry x="300" y="642.83" width="30" height="15" as="geometry" />
        </mxCell>
        <mxCell id="u-bDskKXKWjpwmTJ1djJ-139" value="" style="strokeWidth=1;html=1;shape=mxgraph.flowchart.annotation_1;align=left;pointerEvents=1;fontSize=8;dashed=1;" parent="1" vertex="1">
          <mxGeometry x="270" y="590" width="20" height="80" as="geometry" />
        </mxCell>
        <mxCell id="u-bDskKXKWjpwmTJ1djJ-140" value="" style="triangle;whiteSpace=wrap;html=1;rotation=-90;" parent="1" vertex="1">
          <mxGeometry x="250" y="621.57" width="10" height="12.5" as="geometry" />
        </mxCell>
        <mxCell id="u-bDskKXKWjpwmTJ1djJ-141" value="ts" style="text;html=1;strokeColor=none;fillColor=none;align=center;verticalAlign=middle;whiteSpace=wrap;rounded=0;" parent="1" vertex="1">
          <mxGeometry x="250" y="622.2" width="30" height="15" as="geometry" />
        </mxCell>
        <mxCell id="u-bDskKXKWjpwmTJ1djJ-143" value="" style="shape=image;html=1;verticalAlign=top;verticalLabelPosition=bottom;labelBackgroundColor=#ffffff;imageAspect=0;aspect=fixed;image=https://cdn1.iconfinder.com/data/icons/material-core/16/more-vert-128.png;dashed=1;fontSize=8;strokeColor=#000000;strokeWidth=1;" parent="1" vertex="1">
          <mxGeometry x="295" y="680" width="28" height="28" as="geometry" />
        </mxCell>
        <mxCell id="u-bDskKXKWjpwmTJ1djJ-144" value="No more timer signal" style="text;html=1;strokeColor=none;fillColor=none;align=center;verticalAlign=middle;whiteSpace=wrap;rounded=0;dashed=1;fontSize=8;" parent="1" vertex="1">
          <mxGeometry x="275" y="710" width="60" height="30" as="geometry" />
        </mxCell>
      </root>
    </mxGraphModel>
  </diagram>
</mxfile>
